HIERARCHY
ROOT hip
{
  OFFSET 0 0 0
  CHANNELS 6 Xposition Yposition Zposition Zrotation Yrotation Xrotation
  JOINT abdomen
  {
    OFFSET 0 20.6881 -0.73152
    CHANNELS 3 Zrotation Xrotation Yrotation
    JOINT chest
    {
      OFFSET 0 11.7043 -0.48768
      CHANNELS 3 Zrotation Xrotation Yrotation
      JOINT neck
      {
        OFFSET 0 22.1894 -2.19456
        CHANNELS 3 Zrotation Xrotation Yrotation
        JOINT head
        {
          OFFSET -0.24384 7.07133 1.2192
          CHANNELS 3 Zrotation Xrotation Yrotation
          JOINT leftEye
          {
            OFFSET 4.14528 8.04674 8.04672
            CHANNELS 3 Zrotation Xrotation Yrotation
            End Site
            {
              OFFSET 1 0 0
            }
          }
          JOINT rightEye
          {
            OFFSET -3.6576 8.04674 8.04672
            CHANNELS 3 Zrotation Xrotation Yrotation
            End Site
            {
              OFFSET 1 0 0
            }
          }
        }
      }
      JOINT rCollar
      {
        OFFSET -2.68224 19.2634 -4.8768
        CHANNELS 3 Zrotation Xrotation Yrotation
        JOINT rShldr
        {
          OFFSET -8.77824 -1.95073 1.46304
          CHANNELS 3 Zrotation Xrotation Yrotation
          JOINT rForeArm
          {
            OFFSET -28.1742 -1.7115 0.48768
            CHANNELS 3 Zrotation Xrotation Yrotation
            JOINT rHand
            {
              OFFSET -22.5879 0.773209 7.07136
              CHANNELS 3 Zrotation Xrotation Yrotation
              JOINT rThumb1
              {
                OFFSET -1.2192 -0.487915 3.41376
                CHANNELS 3 Zrotation Xrotation Yrotation
                JOINT rThumb2
                {
                  OFFSET -3.37035 -0.52449 3.41376
                  CHANNELS 3 Zrotation Xrotation Yrotation
                  End Site
                  {
                    OFFSET -1.78271 -1.18214 1.43049
                  }
                }
              }
              JOINT rIndex1
              {
                OFFSET -7.75947 0.938293 5.60832
                CHANNELS 3 Zrotation Xrotation Yrotation
                JOINT rIndex2
                {
                  OFFSET -2.54057 -0.884171 1.56538
                  CHANNELS 3 Zrotation Xrotation Yrotation
                  End Site
                  {
                    OFFSET -1.62519 -0.234802 1.16502
                  }
                }
              }
              JOINT rMid1
              {
                OFFSET -8.24714 1.18213 3.41376
                CHANNELS 3 Zrotation Xrotation Yrotation
                JOINT rMid2
                {
                  OFFSET -3.10165 -0.590103 1.0647
                  CHANNELS 3 Zrotation Xrotation Yrotation
                  End Site
                  {
                    OFFSET -2.48547 -0.328903 0.83742
                  }
                }
              }
              JOINT rRing1
              {
                OFFSET -8.82822 0.546677 1.51678
                CHANNELS 3 Zrotation Xrotation Yrotation
                JOINT rRing2
                {
                  OFFSET -2.60934 -0.819778 -0.0198488
                  CHANNELS 3 Zrotation Xrotation Yrotation
                  End Site
                  {
                    OFFSET -2.33842 -0.294052 0.168128
                  }
                }
              }
              JOINT rPinky1
              {
                OFFSET -8.27202 -0.0477905 -0.4584
                CHANNELS 3 Zrotation Xrotation Yrotation
                JOINT rPinky2
                {
                  OFFSET -1.82734 -0.647385 -0.700984
                  CHANNELS 3 Zrotation Xrotation Yrotation
                  End Site
                  {
                    OFFSET -1.69225 -0.51767 -0.607171
                  }
                }
              }
            }
          }
        }
      }
      JOINT lCollar
      {
        OFFSET 2.68224 19.2634 -4.8768
        CHANNELS 3 Zrotation Xrotation Yrotation
        JOINT lShldr
        {
          OFFSET 8.77824 -1.95073 1.46304
          CHANNELS 3 Zrotation Xrotation Yrotation
          JOINT lForeArm
          {
            OFFSET 28.1742 -1.7115 0.48768
            CHANNELS 3 Zrotation Xrotation Yrotation
            JOINT lHand
            {
              OFFSET 22.5879 0.773209 7.07136
              CHANNELS 3 Zrotation Xrotation Yrotation
              JOINT lThumb1
              {
                OFFSET 1.2192 -0.487915 3.41376
                CHANNELS 3 Zrotation Xrotation Yrotation
                JOINT lThumb2
                {
                  OFFSET 3.37035 -0.52449 3.41376
                  CHANNELS 3 Zrotation Xrotation Yrotation
                  End Site
                  {
                    OFFSET 1.78271 -1.18214 1.43049
                  }
                }
              }
              JOINT lIndex1
              {
                OFFSET 7.75947 0.938293 5.60832
                CHANNELS 3 Zrotation Xrotation Yrotation
                JOINT lIndex2
                {
                  OFFSET 2.54057 -0.884171 1.56538
                  CHANNELS 3 Zrotation Xrotation Yrotation
                  End Site
                  {
                    OFFSET 1.62519 -0.234802 1.16502
                  }
                }
              }
              JOINT lMid1
              {
                OFFSET 8.24714 1.18213 3.41376
                CHANNELS 3 Zrotation Xrotation Yrotation
                JOINT lMid2
                {
                  OFFSET 3.10165 -0.590103 1.0647
                  CHANNELS 3 Zrotation Xrotation Yrotation
                  End Site
                  {
                    OFFSET 2.48547 -0.328903 0.83742
                  }
                }
              }
              JOINT lRing1
              {
                OFFSET 8.82822 0.546677 1.51678
                CHANNELS 3 Zrotation Xrotation Yrotation
                JOINT lRing2
                {
                  OFFSET 2.60934 -0.819778 -0.0198488
                  CHANNELS 3 Zrotation Xrotation Yrotation
                  End Site
                  {
                    OFFSET 2.33842 -0.294052 0.168128
                  }
                }
              }
              JOINT lPinky1
              {
                OFFSET 8.27202 -0.0477905 -0.4584
                CHANNELS 3 Zrotation Xrotation Yrotation
                JOINT lPinky2
                {
                  OFFSET 1.82734 -0.647385 -0.700984
                  CHANNELS 3 Zrotation Xrotation Yrotation
                  End Site
                  {
                    OFFSET 1.69225 -0.51767 -0.607171
                  }
                }
              }
            }
          }
        }
      }
    }
  }
  JOINT rButtock
  {
    OFFSET -8.77824 4.35084 1.2192
    CHANNELS 3 Zrotation Xrotation Yrotation
    JOINT rThigh
    {
      OFFSET 0 -1.70687 -2.19456
      CHANNELS 3 Zrotation Xrotation Yrotation
      JOINT rShin
      {
        OFFSET 0 -36.8199 0.73152
        CHANNELS 3 Zrotation Xrotation Yrotation
        JOINT rFoot
        {
          OFFSET 0.73152 -45.1104 -5.12064
          CHANNELS 3 Zrotation Xrotation Yrotation
          End Site
          {
            OFFSET -1.1221 -3.69964 12.103
          }
        }
      }
    }
  }
  JOINT lButtock
  {
    OFFSET 8.77824 4.35084 1.2192
    CHANNELS 3 Zrotation Xrotation Yrotation
    JOINT lThigh
    {
      OFFSET 0 -1.70687 -2.19456
      CHANNELS 3 Zrotation Xrotation Yrotation
      JOINT lShin
      {
        OFFSET 0 -36.8199 0.73152
        CHANNELS 3 Zrotation Xrotation Yrotation
        JOINT lFoot
        {
          OFFSET -0.73152 -45.1104 -5.12064
          CHANNELS 3 Zrotation Xrotation Yrotation
          End Site
          {
            OFFSET 1.1221 -3.69964 12.103
          }
        }
      }
    }
  }
}
MOTION
Frames:	7
Frame Time:	0.00833333
18.8616 84.2979 1.14327 -29.608 78.2783 -26.5291 6.74124 4.5781 -0.348988 3.44129 0.588488 -0.0330276 -3.06341 30.2503 6.62363 22.7715 -13.9595 16.3166 -0.0 0.0 0.0 -0.0 0.0 0.0 -1.42361e-13 3.04594e-12 -3.8071e-13 37.5462 -8.70539 74.6459 27.9581 -40.6386 -85.0663 -1.08551 -28.199 -4.32136 -1.9112e-09 -1.22418e-09 -3.44977e-09 -3.23161e-09 -2.12466e-09 -5.99337e-09 -1.9112e-09 -1.22418e-09 -3.44977e-09 7.73091 5.47488 0.417314 -1.9112e-09 -1.22418e-09 -3.44976e-09 2.90554 0.965183 0.102902 -1.9112e-09 -1.22418e-09 -3.44976e-09 10.2786 0.731801 0.0259123 -1.91121e-09 -1.22418e-09 -3.44976e-09 2.22167 -0.733487 -0.20892 -1.42524e-13 3.04594e-12 -3.80845e-13 -33.6592 53.9723 -61.0351 -22.029 -51.5947 109.026 1.16662 -29.1179 4.48979 -1.23678e-09 2.26726e-09 -9.65387e-10 -2.11802e-09 3.92978e-09 -1.69484e-09 -1.23678e-09 2.26727e-09 -9.65382e-10 -7.73091 5.47488 -0.417314 -1.23678e-09 2.26726e-09 -9.65387e-10 -2.90554 0.965183 -0.102902 -1.23679e-09 2.26727e-09 -9.65385e-10 -10.2786 0.731801 -0.0259123 -1.23678e-09 2.26727e-09 -9.65392e-10 -2.22167 -0.733487 0.20892 -2.03217e-16 0.0 -3.88251e-19 1.81646 -9.30967 -3.21013 -0.073714 13.0211 0.20211 -0.363609 3.16128 4.00458 2.03217e-16 0.0 3.88251e-19 5.57434 -2.64372 7.26234 -0.00392158 10.2582 -0.25415 2.12453 -12.4933 7.32841
18.8752 84.3019 1.15855 -29.3702 78.2515 -26.3644 6.58415 4.59517 -0.401665 3.59103 0.597499 -0.0508637 -3.13984 30.2552 6.58057 22.8703 -13.7248 16.1989 -0.0 0.0 0.0 -0.0 0.0 0.0 1.84594e-14 5.69943e-13 -1.0489e-13 36.7205 -8.05453 74.3228 28.0181 -40.3368 -84.5131 -1.04609 -27.7363 -4.23766 -1.77632e-09 -8.13657e-10 -3.95929e-09 -2.98241e-09 -1.41855e-09 -6.87621e-09 -1.77632e-09 -8.13658e-10 -3.9593e-09 7.73091 5.47488 0.417314 -1.77632e-09 -8.13658e-10 -3.95929e-09 2.90554 0.965183 0.102902 -1.77632e-09 -8.13658e-10 -3.95929e-09 10.2786 0.731801 0.0259123 -1.77633e-09 -8.13658e-10 -3.95929e-09 2.22167 -0.733487 -0.20892 1.82921e-14 5.69937e-13 -1.05005e-13 -33.7758 54.0235 -61.0619 -22.0659 -51.5588 108.926 1.17177 -29.1751 4.50036 7.57523e-10 2.91736e-10 -8.92188e-10 1.32776e-09 4.67577e-10 -1.52157e-09 7.57523e-10 2.91741e-10 -8.92185e-10 -7.73091 5.47488 -0.417314 7.57523e-10 2.91726e-10 -8.92191e-10 -2.90554 0.965183 -0.102902 7.57519e-10 2.91742e-10 -8.92187e-10 -10.2786 0.731801 -0.0259123 7.57524e-10 2.91744e-10 -8.92193e-10 -2.22167 -0.733487 0.20892 -2.03217e-16 0.0 -3.88251e-19 1.75185 -9.27073 -3.30804 -0.0732662 13.0155 0.202618 -0.366058 3.19408 4.10959 2.03217e-16 0.0 3.88251e-19 5.5122 -2.58939 7.29684 -0.00354434 10.2635 -0.254516 2.12852 -12.5136 7.33293
18.8725 84.2996 1.15885 -28.7905 78.2482 -25.8036 6.41657 4.60247 -0.44103 3.73847 0.590803 -0.0648776 -3.24904 30.2331 6.55479 22.9872 -13.5427 16.1159 -0.0 0.0 0.0 -0.0 0.0 0.0 1.76842e-13 -1.87973e-12 1.68945e-13 35.9142 -7.3228 73.89 28.0683 -40.0536 -84.0064 -1.0018 -27.1965 -4.14116 -1.60662e-09 -4.07534e-10 -4.44219e-09 -2.67409e-09 -7.20063e-10 -7.71219e-09 -1.60661e-09 -4.07536e-10 -4.4422e-09 7.73091 5.47488 0.417314 -1.60662e-09 -4.07538e-10 -4.4422e-09 2.90554 0.965183 0.102902 -1.60661e-09 -4.07538e-10 -4.4422e-09 10.2786 0.731801 0.0259123 -1.60662e-09 -4.07538e-10 -4.4422e-09 2.22167 -0.733487 -0.20892 1.76676e-13 -1.87973e-12 1.68846e-13 -33.8751 54.0854 -61.1051 -22.1007 -51.5247 108.832 1.17762 -29.2399 4.51236 2.71932e-09 -1.66852e-09 -8.05363e-10 4.71705e-09 -2.9672e-09 -1.32551e-09 2.71932e-09 -1.66852e-09 -8.05362e-10 -7.73091 5.47488 -0.417314 2.71932e-09 -1.66854e-09 -8.05369e-10 -2.90554 0.965183 -0.102902 2.71932e-09 -1.66852e-09 -8.05363e-10 -10.2786 0.731801 -0.0259123 2.71932e-09 -1.66851e-09 -8.05369e-10 -2.22167 -0.733487 0.20892 -2.03217e-16 0.0 -3.88251e-19 1.68749 -9.23986 -3.41293 -0.0727588 13.0056 0.203063 -0.368343 3.22306 4.21622 2.03217e-16 0.0 3.88251e-19 5.45026 -2.54697 7.32315 -0.00320138 10.2679 -0.254825 2.13275 -12.5343 7.33821
18.8658 84.2987 1.17601 -28.5179 78.2403 -25.5449 6.29462 4.60594 -0.442258 3.82183 0.577837 -0.0670582 -3.34628 30.2017 6.56058 23.0824 -13.5298 16.1147 -0.0 0.0 0.0 -0.0 0.0 0.0 2.64873e-13 -3.24337e-12 3.22876e-13 35.254 -6.60239 73.3732 28.1033 -39.8299 -83.6174 -0.963347 -26.7135 -4.05569 -1.59095e-09 -2.59606e-10 -5.02816e-09 -2.63285e-09 -4.67659e-10 -8.7269e-09 -1.59094e-09 -2.5961e-10 -5.02817e-09 7.73091 5.47488 0.417314 -1.59094e-09 -2.59612e-10 -5.02816e-09 2.90554 0.965183 0.102902 -1.59094e-09 -2.59613e-10 -5.02816e-09 10.2786 0.731801 0.0259123 -1.59095e-09 -2.59613e-10 -5.02816e-09 2.22167 -0.733487 -0.20892 2.64706e-13 -3.24338e-12 3.22777e-13 -33.9025 54.1492 -61.1686 -22.1226 -51.5031 108.772 1.18343 -29.304 4.52423 3.83315e-09 -2.76996e-09 -7.62974e-10 6.64121e-09 -4.8977e-09 -1.22575e-09 3.83315e-09 -2.76997e-09 -7.62974e-10 -7.73091 5.47488 -0.417314 3.83315e-09 -2.76999e-09 -7.6298e-10 -2.90554 0.965183 -0.102902 3.83315e-09 -2.76996e-09 -7.62974e-10 -10.2786 0.731801 -0.0259123 3.83316e-09 -2.76996e-09 -7.6298e-10 -2.22167 -0.733487 0.20892 -2.03217e-16 0.0 -3.88251e-19 1.66104 -9.21623 -3.49437 -0.0722382 12.9836 0.202996 -0.370416 3.24626 4.30252 2.03217e-16 0.0 3.88251e-19 5.4233 -2.54064 7.35293 -0.00288327 10.3064 -0.25554 2.13801 -12.5648 7.3374
18.8468 84.3033 1.24291 -29.1642 78.118 -26.1745 6.2364 4.60476 -0.39417 3.8204 0.554861 -0.0537723 -3.41396 30.1604 6.61094 23.1355 -13.738 16.2273 -0.0 0.0 0.0 -0.0 0.0 0.0 2.46112e-13 -2.95052e-12 2.95583e-13 34.7226 -5.84549 72.7088 28.1249 -39.6828 -83.3636 -0.929677 -26.2856 -3.98039 -1.9142e-09 -5.6622e-10 -6.10133e-09 -3.1721e-09 -1.00181e-09 -1.05865e-08 -1.91418e-09 -5.66224e-10 -6.10134e-09 7.73091 5.47488 0.417314 -1.91419e-09 -5.66227e-10 -6.10134e-09 2.90554 0.965183 0.102902 -1.91419e-09 -5.66228e-10 -6.10134e-09 10.2786 0.731801 0.0259123 -1.9142e-09 -5.66227e-10 -6.10133e-09 2.22167 -0.733487 -0.20892 2.45938e-13 -2.95053e-12 2.95461e-13 -33.8312 54.224 -61.261 -22.1257 -51.4999 108.764 1.1896 -29.3719 4.53683 3.71898e-09 -2.60304e-09 -8.02377e-10 6.44364e-09 -4.60761e-09 -1.29515e-09 3.71897e-09 -2.60304e-09 -8.02377e-10 -7.73091 5.47488 -0.417314 3.71897e-09 -2.60307e-09 -8.02383e-10 -2.90554 0.965183 -0.102902 3.71898e-09 -2.60304e-09 -8.02378e-10 -10.2786 0.731801 -0.0259123 3.71898e-09 -2.60304e-09 -8.02385e-10 -2.22167 -0.733487 0.20892 -2.03217e-16 0.0 -3.88251e-19 1.68788 -9.20111 -3.54268 -0.0717257 12.9456 0.202251 -0.372056 3.26051 4.36294 2.03217e-16 0.0 3.88251e-19 5.44536 -2.58224 7.39142 -0.0026173 10.3953 -0.256883 2.14549 -12.6112 7.33013
18.8346 84.3016 1.27289 -29.0227 78.0747 -26.036 6.21095 4.59655 -0.311525 3.76858 0.518926 -0.0297916 -3.47766 30.1014 6.69512 23.1725 -14.0974 16.423 -0.0 0.0 0.0 -0.0 0.0 0.0 1.62888e-13 -1.66231e-12 1.59916e-13 34.2827 -4.98271 71.9169 28.1392 -39.5918 -83.2011 -0.896369 -25.8539 -3.90493 -2.4308e-09 -1.14913e-09 -7.47603e-09 -4.04238e-09 -2.01416e-09 -1.29686e-08 -2.43079e-09 -1.14913e-09 -7.47604e-09 7.73091 5.47488 0.417314 -2.43079e-09 -1.14914e-09 -7.47603e-09 2.90554 0.965183 0.102902 -2.43079e-09 -1.14914e-09 -7.47603e-09 10.2786 0.731801 0.0259123 -2.4308e-09 -1.14914e-09 -7.47603e-09 2.22167 -0.733487 -0.20892 1.62707e-13 -1.66232e-12 1.59755e-13 -33.6939 54.3105 -61.3782 -22.1171 -51.5086 108.787 1.19634 -29.4459 4.55057 2.86591e-09 -1.67918e-09 -8.85316e-10 4.96928e-09 -2.9921e-09 -1.45649e-09 2.8659e-09 -1.67918e-09 -8.85315e-10 -7.73091 5.47488 -0.417314 2.86591e-09 -1.67919e-09 -8.85321e-10 -2.90554 0.965183 -0.102902 2.86591e-09 -1.67918e-09 -8.85319e-10 -10.2786 0.731801 -0.0259123 2.86592e-09 -1.67918e-09 -8.85327e-10 -2.22167 -0.733487 0.20892 -2.03217e-16 0.0 -3.88251e-19 1.74607 -9.19447 -3.57463 -0.0711951 12.8963 0.201084 -0.37329 3.26775 4.40908 2.03217e-16 0.0 3.88251e-19 5.49641 -2.65707 7.4317 -0.00239349 10.5135 -0.258576 2.15443 -12.6672 7.31958
18.816 84.2938 1.28363 -28.6947 78.082 -25.6746 6.20078 4.58495 -0.20841 3.68718 0.480662 0.000287251 -3.55745 30.032 6.79176 23.2234 -14.5432 16.6545 -0.0 0.0 0.0 -0.0 0.0 0.0 6.54509e-14 -1.66435e-13 -7.9514e-16 34.0197 -4.10544 71.1232 28.1481 -39.542 -83.1077 -0.867296 -25.4666 -3.83779 -2.83394e-09 -1.70024e-09 -8.42719e-09 -4.72562e-09 -2.96991e-09 -1.46163e-08 -2.83393e-09 -1.70025e-09 -8.42719e-09 7.73091 5.47488 0.417314 -2.83393e-09 -1.70025e-09 -8.42719e-09 2.90554 0.965183 0.102902 -2.83393e-09 -1.70025e-09 -8.42719e-09 10.2786 0.731801 0.0259123 -2.83394e-09 -1.70025e-09 -8.42718e-09 2.22167 -0.733487 -0.20892 6.52621e-14 -1.66437e-13 -1.00169e-15 -33.5262 54.3876 -61.5045 -22.1045 -51.521 108.822 1.20258 -29.5139 4.56323 1.76219e-09 -5.36311e-10 -9.56428e-10 3.06174e-09 -9.91458e-10 -1.60377e-09 1.76218e-09 -5.36313e-10 -9.56426e-10 -7.73091 5.47488 -0.417314 1.76219e-09 -5.36321e-10 -9.5643e-10 -2.90554 0.965183 -0.102902 1.76218e-09 -5.36316e-10 -9.56432e-10 -10.2786 0.731801 -0.0259123 1.7622e-09 -5.36314e-10 -9.5644e-10 -2.22167 -0.733487 0.20892 -2.03217e-16 0.0 -3.88251e-19 1.81726 -9.19348 -3.59946 -0.0706223 12.8409 0.199677 -0.374429 3.27368 4.44473 2.03217e-16 0.0 3.88251e-19 5.56013 -2.74946 7.46722 -0.00214701 10.6403 -0.260333 2.16268 -12.7239 7.30417
